<svg fill="none" viewBox="-7 -14 750 875" xmlns="http://www.w3.org/2000/svg"><g stroke="#000" stroke-linecap="round" stroke-linejoin="round" stroke-width="30"><path d="m366 1-364 209"/><path d="m2 210-1 427"/><path d="m1 637 370 210"/><path d="m371 847 363-210"/><path d="m734 637 1-425"/><path d="m735 212-369-211"/><path d="m366 1 1.6 156.6"/><path d="m2 210 365.6-52.4"/><path d="m367.6 157.6 367.4 54.4"/><path d="m2 210 141.7 337"/><path d="m1 637 142.7-90"/><path d="m735 212-144 335"/><path d="m734 637-143-90"/><path d="m367.6 157.6-223.9 389.4"/><path d="m367.6 157.6 223.4 389.4"/><path d="m143.7 547h447.3"/><path d="m143.7 547 227.3 300"/><path d="m591 547-220 300"/><path d="m143.7 547 125.6-220.8"/><path d="m269.3 326.2 97.2 220.8"/><path d="m366.5 547 95.7-223.8"/><path d="m462.2 323.2 128.8 223.8"/><path d="m269.3 547v-220.8"/><path d="m462.2 547v-223.8"/></g></svg>